<svg width="12" height="16" viewBox="0 0 12 16" fill="none" xmlns="http://www.w3.org/2000/svg">
<path d="M11.9438 14.7013L6.87086 0.627908C6.8044 0.443468 6.6854 0.284526 6.52979 0.172323C6.37417 0.060119 6.18934 0 6 0C5.81066 0 5.62583 0.060119 5.47021 0.172323C5.3146 0.284526 5.1956 0.443468 5.12914 0.627908L0.0561592 14.7013C-0.0277447 14.941 -0.0172935 15.2054 0.0852395 15.4371C0.187772 15.6688 0.374093 15.849 0.603671 15.9385C0.833249 16.028 1.08751 16.0196 1.31115 15.915C1.53479 15.8105 1.70972 15.6184 1.79788 15.3804L3.32654 11.1399C3.33256 11.1231 3.34335 11.1087 3.35748 11.0984C3.37161 11.0882 3.38839 11.0827 3.40559 11.0827H8.59441C8.61161 11.0827 8.62839 11.0882 8.64252 11.0984C8.65665 11.1087 8.66744 11.1231 8.67346 11.1399L10.2021 15.3804C10.2903 15.6184 10.4652 15.8105 10.6888 15.915C10.9125 16.0196 11.1668 16.028 11.3963 15.9385C11.6259 15.849 11.8122 15.6688 11.9148 15.4371C12.0173 15.2054 12.0277 14.941 11.9438 14.7013ZM4.08749 9.02798L5.92095 3.94176C5.92703 3.92507 5.93785 3.9107 5.95197 3.90056C5.96609 3.89042 5.98284 3.88499 6 3.88499C6.01716 3.88499 6.03391 3.89042 6.04803 3.90056C6.06215 3.9107 6.07297 3.92507 6.07905 3.94176L7.91251 9.02886C7.91729 9.04215 7.9189 9.05645 7.91721 9.07053C7.91552 9.08462 7.91058 9.09806 7.90282 9.10973C7.89505 9.12139 7.88469 9.13093 7.87261 9.13753C7.86053 9.14412 7.8471 9.14758 7.83346 9.14761H4.16654C4.1529 9.14758 4.13947 9.14412 4.12739 9.13753C4.11531 9.13093 4.10495 9.12139 4.09718 9.10973C4.08941 9.09806 4.08448 9.08462 4.08279 9.07053C4.0811 9.05645 4.08271 9.04128 4.08749 9.02798Z" fill="#E6F3FF"/>
</svg>
