<svg width="32" height="32" viewBox="0 0 32 32" fill="none" xmlns="http://www.w3.org/2000/svg">
<path d="M14.667 4C17.8496 4 20.9018 5.26428 23.1523 7.51472C25.4027 9.76515 26.667 12.8174 26.667 16H30.667L25.3337 21.3333L20.0003 16H24.0003C24.0003 10.8533 19.8137 6.66667 14.667 6.66667C9.52032 6.66667 5.33366 10.8533 5.33366 16C5.33366 21.1467 9.52032 25.3333 14.667 25.3333C17.2003 25.3333 19.4937 24.32 21.1737 22.68L23.067 24.56C20.827 26.7647 17.81 28.0003 14.667 28C11.4844 28 8.43215 26.7357 6.18171 24.4853C3.93127 22.2348 2.66699 19.1826 2.66699 16C2.66699 12.8174 3.93127 9.76515 6.18171 7.51472C8.43215 5.26428 11.4844 4 14.667 4ZM12.0003 14.6667V13.3333C12.0003 11.8667 13.2003 10.6667 14.667 10.6667C16.1337 10.6667 17.3337 11.8667 17.3337 13.3333V14.6667H18.667V21.3333H10.667V14.6667H12.0003ZM13.3337 14.6667H16.0003V13.3333C16.0003 12.6 15.4003 12 14.667 12C13.9337 12 13.3337 12.6 13.3337 13.3333V14.6667Z" fill="#E6F3FF"/>
</svg>
