<svg width="22" height="16" viewBox="0 0 22 16" fill="none" xmlns="http://www.w3.org/2000/svg">
<path d="M8.51561 15.1647L4.89873 6.11752C4.85134 5.99895 4.7665 5.89678 4.65555 5.82465C4.5446 5.75252 4.41282 5.71387 4.27783 5.71387C4.14283 5.71387 4.01105 5.75252 3.9001 5.82465C3.78915 5.89678 3.70431 5.99895 3.65693 6.11752L0.0400399 15.1647C-0.0197812 15.3188 -0.0123298 15.4888 0.0607733 15.6377C0.133876 15.7866 0.266717 15.9025 0.4304 15.96C0.594082 16.0176 0.775365 16.0122 0.934815 15.945C1.09426 15.8778 1.21898 15.7542 1.28184 15.6012L2.37173 12.8752C2.37602 12.8644 2.38372 12.8551 2.39379 12.8486C2.40386 12.842 2.41582 12.8385 2.42809 12.8385H6.12756C6.13983 12.8385 6.1518 12.842 6.16187 12.8486C6.17194 12.8551 6.17963 12.8644 6.18393 12.8752L7.27382 15.6012C7.33667 15.7542 7.46139 15.8778 7.62084 15.945C7.78029 16.0122 7.96157 16.0176 8.12525 15.96C8.28894 15.9025 8.42178 15.7866 8.49488 15.6377C8.56798 15.4888 8.57543 15.3188 8.51561 15.1647ZM2.91426 11.5176L4.22146 8.24786C4.2258 8.23713 4.23352 8.22789 4.24358 8.22137C4.25365 8.21485 4.26559 8.21136 4.27783 8.21136C4.29006 8.21136 4.302 8.21485 4.31207 8.22137C4.32214 8.22789 4.32985 8.23713 4.33419 8.24786L5.64139 11.5181C5.6448 11.5267 5.64595 11.5359 5.64474 11.5449C5.64354 11.554 5.64002 11.5626 5.63448 11.5701C5.62894 11.5776 5.62155 11.5838 5.61294 11.588C5.60433 11.5922 5.59476 11.5945 5.58503 11.5945H2.97062C2.9609 11.5945 2.95132 11.5922 2.94271 11.588C2.9341 11.5838 2.92671 11.5776 2.92117 11.5701C2.91563 11.5626 2.91211 11.554 2.91091 11.5449C2.90971 11.5359 2.91086 11.5261 2.91426 11.5176Z" fill="#E6F3FF"/>
<path d="M21.9373 14.7013L16.2537 0.627908C16.1792 0.443468 16.0459 0.284526 15.8715 0.172323C15.6972 0.060119 15.4901 0 15.278 0C15.0658 0 14.8588 0.060119 14.6844 0.172323C14.51 0.284526 14.3767 0.443468 14.3023 0.627908L8.61858 14.7013C8.52458 14.941 8.53629 15.2054 8.65116 15.4371C8.76604 15.6688 8.97479 15.849 9.23201 15.9385C9.48922 16.028 9.7741 16.0196 10.0247 15.915C10.2752 15.8105 10.4712 15.6184 10.57 15.3804L12.2827 11.1399C12.2894 11.1231 12.3015 11.1087 12.3173 11.0984C12.3332 11.0882 12.352 11.0827 12.3712 11.0827H18.1847C18.204 11.0827 18.2228 11.0882 18.2386 11.0984C18.2544 11.1087 18.2665 11.1231 18.2733 11.1399L19.9859 15.3804C20.0847 15.6184 20.2807 15.8105 20.5313 15.915C20.7818 16.0196 21.0667 16.028 21.3239 15.9385C21.5811 15.849 21.7899 15.6688 21.9048 15.4371C22.0196 15.2054 22.0313 14.941 21.9373 14.7013ZM13.1352 9.02798L15.1894 3.94176C15.1962 3.92507 15.2083 3.9107 15.2242 3.90056C15.24 3.89042 15.2587 3.88499 15.278 3.88499C15.2972 3.88499 15.316 3.89042 15.3318 3.90056C15.3476 3.9107 15.3597 3.92507 15.3665 3.94176L17.4207 9.02886C17.4261 9.04216 17.4279 9.05645 17.426 9.07053C17.4241 9.08462 17.4185 9.09806 17.4098 9.10973C17.4011 9.1214 17.3895 9.13093 17.376 9.13753C17.3625 9.14412 17.3474 9.14758 17.3321 9.14761H13.2238C13.2085 9.14758 13.1935 9.14412 13.1799 9.13753C13.1664 9.13093 13.1548 9.1214 13.1461 9.10973C13.1374 9.09806 13.1318 9.08462 13.13 9.07053C13.1281 9.05645 13.1299 9.04128 13.1352 9.02798Z" fill="#E6F3FF"/>
</svg>
