<svg width="72" height="72" viewBox="0 0 72 72" fill="none" xmlns="http://www.w3.org/2000/svg">
<path opacity="0.5" d="M36.0003 6.54492C19.7331 6.54492 6.5459 19.8957 6.5459 36.3647V52.436L6.54767 53.0086C6.5578 54.7879 6.61856 56.1196 6.96734 57.3139C7.59898 59.4775 8.90175 61.3553 10.6558 62.6871V39.8215V36.3647C10.6558 22.1938 22.003 10.7058 36.0003 10.7058C49.9977 10.7058 61.3451 22.1938 61.3451 36.3647V39.8215V62.6871C63.0991 61.3552 64.4018 59.4774 65.0334 57.3139C65.4564 55.8654 65.4558 54.2153 65.4549 51.8092V36.3647C65.4549 19.8957 52.2678 6.54492 36.0003 6.54492Z" fill="#0084FF"/>
<path fill-rule="evenodd" clip-rule="evenodd" d="M59.5937 63.7591C60.2164 63.4593 60.8024 63.0994 61.3451 62.6873V39.8216C60.5601 39.2257 59.6865 38.74 58.7443 38.3872C57.4035 37.8853 55.8241 37.7595 53.5158 37.576L53.1923 37.5501L52.9178 37.528C51.684 37.4278 50.6221 37.3415 49.6902 37.5583C47.558 38.054 45.8449 39.6567 45.1889 41.7697C44.9023 42.6931 44.9035 43.7715 44.905 45.0248L44.9053 57.3144C44.9053 58.1701 44.9053 58.9014 44.94 59.5023C44.9766 60.1276 45.0561 60.7589 45.2811 61.3812C46.0222 63.4295 47.7653 64.9373 49.879 65.3588C50.5214 65.4869 51.1494 65.4681 51.7653 65.4068C52.3573 65.3479 53.0707 65.2339 53.9057 65.1005L54.2883 65.0392C56.6362 64.6648 58.2462 64.4083 59.5937 63.7591ZM13.2565 38.3872C12.3144 38.74 11.4406 39.2257 10.6558 39.8216V62.6874C11.1986 63.0994 11.7845 63.4593 12.4071 63.7591C13.7545 64.4083 15.3646 64.6648 17.7123 65.0392L18.0951 65.1005C18.9301 65.2339 19.6435 65.3479 20.2355 65.4068C20.8513 65.4681 21.4794 65.4869 22.1219 65.3588C24.2356 64.9373 25.9787 63.4295 26.7196 61.3812C26.9447 60.7589 27.0244 60.1276 27.0607 59.5023C27.0956 58.9014 27.0956 58.1701 27.0956 57.3144L27.0958 45.0248C27.0973 43.7715 27.0986 42.6931 26.8118 41.7697C26.1558 39.6567 24.4429 38.054 22.3107 37.5583C21.3787 37.3415 20.3169 37.4278 19.083 37.528L18.8084 37.5501L18.4849 37.576C16.1765 37.7595 14.5972 37.8853 13.2565 38.3872Z" fill="#0084FF"/>
</svg>
