<svg width="18" height="25" viewBox="0 0 18 25" fill="none" xmlns="http://www.w3.org/2000/svg">
<path fill-rule="evenodd" clip-rule="evenodd" d="M17.5 8.75V15.75V21.875C17.5 22.5712 17.2234 23.2389 16.7312 23.7312C16.2389 24.2234 15.5712 24.5 14.875 24.5H2.625C1.92881 24.5 1.26113 24.2234 0.768845 23.7312C0.276562 23.2389 0 22.5712 0 21.875V2.625C0 1.92881 0.276562 1.26113 0.768845 0.768845C1.26113 0.276562 1.92881 0 2.625 0H14.875C15.5712 0 16.2389 0.276562 16.7312 0.768845C17.2234 1.26113 17.5 1.92881 17.5 2.625V8.75ZM16.1 9.15V15.35V20.775C16.1 21.3916 15.8677 21.983 15.4542 22.419C15.0407 22.855 14.4798 23.1 13.895 23.1H3.605C3.0202 23.1 2.45935 22.855 2.04583 22.419C1.63231 21.983 1.4 21.3916 1.4 20.775V3.725C1.4 3.10837 1.63231 2.517 2.04583 2.08098C2.45935 1.64496 3.0202 1.4 3.605 1.4H13.895C14.4798 1.4 15.0407 1.64496 15.4542 2.08098C15.8677 2.517 16.1 3.10837 16.1 3.725V9.15Z" fill="#E6F3FF"/>
<path d="M7.36409 5.91411C7.38542 5.8234 7.42968 5.74377 7.49025 5.68714C7.55082 5.63052 7.62444 5.59994 7.70007 5.6H10.4999C10.5553 5.60005 10.6099 5.61656 10.6593 5.64816C10.7086 5.67976 10.7512 5.72556 10.7836 5.78177C10.816 5.83799 10.8372 5.90301 10.8456 5.9715C10.854 6.03999 10.8492 6.10998 10.8317 6.17572L9.58575 10.8497H12.2498C12.3153 10.8496 12.3796 10.8726 12.4352 10.9159C12.4908 10.9593 12.5356 11.0213 12.5644 11.0948C12.5932 11.1684 12.6049 11.2506 12.5981 11.3321C12.5914 11.4136 12.5665 11.4911 12.5263 11.5558L7.62657 19.4303C7.57638 19.5114 7.50501 19.5678 7.42492 19.5898C7.34483 19.6118 7.2611 19.5979 7.18835 19.5507C7.11559 19.5034 7.05843 19.4256 7.02685 19.331C6.99526 19.2364 6.99125 19.131 7.01551 19.0331L8.27613 13.912H5.95018C5.89577 13.912 5.8421 13.8962 5.79344 13.8658C5.74477 13.8354 5.70245 13.7912 5.66984 13.7368C5.63722 13.6823 5.61521 13.6191 5.60556 13.5522C5.5959 13.4852 5.59886 13.4164 5.6142 13.3512L7.36409 5.91411Z" fill="#E6F3FF"/>
</svg>
