<svg width="25" height="15" viewBox="0 0 25 15" fill="none" xmlns="http://www.w3.org/2000/svg">
<path fill-rule="evenodd" clip-rule="evenodd" d="M1.82927 11.5385C2.31442 11.5385 2.7797 11.7208 3.12276 12.0454C3.46581 12.37 3.65854 12.8102 3.65854 13.2692C3.65854 13.7283 3.46581 14.1685 3.12276 14.4931C2.7797 14.8177 2.31442 15 1.82927 15C1.34412 15 0.878835 14.8177 0.53578 14.4931C0.192726 14.1685 0 13.7283 0 13.2692C0 12.8102 0.192726 12.37 0.53578 12.0454C0.878835 11.7208 1.34412 11.5385 1.82927 11.5385ZM23.7793 12.1154C24.4537 12.1154 25 12.6277 25 13.2692C25 13.9067 24.4573 14.4231 23.7793 14.4231H6.70854C6.5482 14.4235 6.38934 14.394 6.2411 14.3362C6.09285 14.2784 5.95814 14.1934 5.8447 14.0862C5.73127 13.979 5.64134 13.8516 5.5801 13.7114C5.51885 13.5712 5.48748 13.4209 5.4878 13.2692C5.4878 12.6317 6.03049 12.1154 6.70854 12.1154H23.7793ZM1.82927 5.76923C2.31442 5.76923 2.7797 5.95158 3.12276 6.27616C3.46581 6.60074 3.65854 7.04097 3.65854 7.5C3.65854 7.95903 3.46581 8.39926 3.12276 8.72384C2.7797 9.04842 2.31442 9.23077 1.82927 9.23077C1.34412 9.23077 0.878835 9.04842 0.53578 8.72384C0.192726 8.39926 0 7.95903 0 7.5C0 7.04097 0.192726 6.60074 0.53578 6.27616C0.878835 5.95158 1.34412 5.76923 1.82927 5.76923ZM23.7793 6.34615C24.4537 6.34615 25 6.85846 25 7.5C25 8.1375 24.4573 8.65385 23.7793 8.65385H6.70854C6.5482 8.6543 6.38934 8.62478 6.2411 8.56697C6.09285 8.50916 5.95814 8.4242 5.8447 8.31698C5.73127 8.20976 5.64134 8.08239 5.5801 7.94219C5.51885 7.80198 5.48748 7.65171 5.4878 7.5C5.4878 6.8625 6.03049 6.34615 6.70854 6.34615H23.7793ZM1.82927 0C2.31442 0 2.7797 0.182348 3.12276 0.50693C3.46581 0.831513 3.65854 1.27174 3.65854 1.73077C3.65854 2.1898 3.46581 2.63003 3.12276 2.95461C2.7797 3.27919 2.31442 3.46154 1.82927 3.46154C1.34412 3.46154 0.878835 3.27919 0.53578 2.95461C0.192726 2.63003 0 2.1898 0 1.73077C0 1.27174 0.192726 0.831513 0.53578 0.50693C0.878835 0.182348 1.34412 0 1.82927 0ZM23.7793 0.576923C24.4537 0.576923 25 1.08923 25 1.73077C25 2.36827 24.4573 2.88462 23.7793 2.88462H6.70854C6.5482 2.88507 6.38934 2.85555 6.2411 2.79774C6.09285 2.73993 5.95814 2.65497 5.8447 2.54775C5.73127 2.44053 5.64134 2.31316 5.5801 2.17295C5.51885 2.03275 5.48748 1.88248 5.4878 1.73077C5.4878 1.09327 6.03049 0.576923 6.70854 0.576923H23.7793Z" fill="#E6F3FF"/>
</svg>
