<svg width="32" height="32" viewBox="0 0 32 32" fill="none" xmlns="http://www.w3.org/2000/svg">
<path d="M16 2.90967C8.77017 2.90967 2.90918 8.84337 2.90918 16.1629V23.3057L2.90997 23.5602C2.91447 24.351 2.94148 24.9428 3.09649 25.4737C3.37722 26.4352 3.95623 27.2698 4.73581 27.8618V17.6992V16.1629C4.73581 9.86471 9.779 4.75897 16 4.75897C22.2211 4.75897 27.2644 9.86471 27.2644 16.1629V17.6992V27.8617C28.0439 27.2698 28.6229 26.4352 28.9036 25.4737C29.0916 24.8299 29.0914 24.0965 29.091 23.0271V16.1629C29.091 8.84337 23.23 2.90967 16 2.90967Z" fill="#E6F3FF"/>
<path fill-rule="evenodd" clip-rule="evenodd" d="M26.486 28.3381C26.7627 28.2048 27.0232 28.0449 27.2644 27.8617V17.6992C26.9155 17.4344 26.5272 17.2186 26.1084 17.0617C25.5126 16.8387 24.8106 16.7828 23.7847 16.7012L23.6409 16.6897L23.5189 16.6799C22.9705 16.6354 22.4986 16.597 22.0844 16.6933C21.1368 16.9137 20.3754 17.6259 20.0839 18.5651C19.9565 18.9755 19.957 19.4547 19.9577 20.0118L19.9578 25.4738C19.9578 25.8541 19.9578 26.1791 19.9732 26.4462C19.9895 26.7241 20.0248 27.0047 20.1248 27.2813C20.4542 28.1916 21.2289 28.8617 22.1683 29.0491C22.4538 29.106 22.7329 29.0976 23.0067 29.0704C23.2698 29.0442 23.5869 28.9936 23.958 28.9343L24.128 28.907C25.1715 28.7406 25.8871 28.6266 26.486 28.3381ZM5.89168 17.0617C5.47295 17.2186 5.08458 17.4344 4.73581 17.6992V27.8618C4.97703 28.0449 5.23744 28.2048 5.51416 28.3381C6.11302 28.6266 6.8286 28.7406 7.87204 28.907L8.04217 28.9343C8.41326 28.9936 8.73035 29.0442 8.99344 29.0704C9.26713 29.0976 9.54631 29.106 9.83183 29.0491C10.7713 28.8617 11.546 28.1916 11.8753 27.2813C11.9753 27.0047 12.0107 26.7241 12.0269 26.4462C12.0424 26.1791 12.0424 25.8541 12.0424 25.4738L12.0425 20.0118C12.0431 19.4547 12.0437 18.9755 11.9163 18.5651C11.6247 17.6259 10.8634 16.9137 9.91577 16.6933C9.50154 16.597 9.02965 16.6354 8.48123 16.6799L8.35918 16.6897L8.2154 16.7012C7.18946 16.7828 6.48753 16.8387 5.89168 17.0617Z" fill="#E6F3FF"/>
</svg>
