<svg width="16" height="16" viewBox="0 0 16 16" fill="none" xmlns="http://www.w3.org/2000/svg">
<path d="M14.2377 0.304951C14.3336 0.209108 14.4474 0.133081 14.5726 0.0812107C14.6979 0.0293408 14.8321 0.00264413 14.9677 0.00264413C15.1033 0.00264413 15.2375 0.0293408 15.3627 0.0812107C15.488 0.133081 15.6018 0.209108 15.6976 0.304951C15.7935 0.400794 15.8695 0.514576 15.9214 0.639801C15.9733 0.765026 16 0.899241 16 1.03478C16 1.17033 15.9733 1.30454 15.9214 1.42977C15.8695 1.55499 15.7935 1.66877 15.6976 1.76462L9.46248 8.00056L15.6976 14.2365L15.8307 14.3983C15.9607 14.597 16.0184 14.8343 15.994 15.0705C15.9696 15.3067 15.8646 15.5273 15.6967 15.6952C15.5288 15.8631 15.3081 15.9681 15.0719 15.9925C14.8357 16.0169 14.5983 15.9592 14.3996 15.8292L14.2377 15.6962L8.00078 9.46022L1.76382 15.698C1.66784 15.7938 1.55393 15.8698 1.42857 15.9216C1.30322 15.9735 1.16888 16.0001 1.03323 16C0.897585 15.9999 0.763282 15.9731 0.637991 15.9211C0.5127 15.8692 0.398876 15.793 0.303018 15.6971C0.207159 15.6011 0.131143 15.4872 0.0793098 15.3619C0.0274766 15.2365 0.000841494 15.1022 0.000924972 14.9666C0.00100845 14.831 0.0278089 14.6967 0.0797963 14.5714C0.131784 14.4461 0.20794 14.3323 0.303917 14.2365L6.54087 8.00056L0.302119 1.76462L0.170871 1.60283C0.0397974 1.40418 -0.0187023 1.1664 0.00524882 0.929623C0.0291999 0.692848 0.134134 0.471589 0.302336 0.303204C0.470537 0.134819 0.6917 0.0296238 0.928483 0.00537936C1.16527 -0.0188651 1.40316 0.0393266 1.60201 0.170129L1.76382 0.304951L8.00078 6.53909L14.2377 0.304951Z" fill="#FF9F9F"/>
</svg>

