<svg width="20" height="14" viewBox="0 0 20 14" fill="none" xmlns="http://www.w3.org/2000/svg">
<path d="M3.75 12.0909C3.75 13.1453 2.91053 14 1.875 14C0.839466 14 0 13.1453 0 12.0909C0 11.0365 0.839466 10.1818 1.875 10.1818C2.91053 10.1818 3.75 11.0365 3.75 12.0909Z" fill="#E6F3FF"/>
<path d="M11.875 12.0909C11.875 13.1453 11.0355 14 10 14C8.96447 14 8.125 13.1453 8.125 12.0909C8.125 11.0365 8.96447 10.1818 10 10.1818C11.0355 10.1818 11.875 11.0365 11.875 12.0909Z" fill="#E6F3FF"/>
<path d="M20 12.0909C20 13.1453 19.1605 14 18.125 14C17.0895 14 16.25 13.1453 16.25 12.0909C16.25 11.0365 17.0895 10.1818 18.125 10.1818C19.1605 10.1818 20 11.0365 20 12.0909Z" fill="#E6F3FF"/>
<path d="M1.875 8.90909H18.125C19.1605 8.90909 20 8.05436 20 7C20 5.94564 19.1605 5.09091 18.125 5.09091H1.875C0.839466 5.09091 0 5.94564 0 7C0 8.05436 0.839467 8.90909 1.875 8.90909Z" fill="#E6F3FF"/>
<path d="M1.875 3.81818H18.125C19.1605 3.81818 20 2.96345 20 1.90909C20 0.854729 19.1605 0 18.125 0H1.875C0.839466 0 0 0.854729 0 1.90909C0 2.96345 0.839467 3.81818 1.875 3.81818Z" fill="#E6F3FF"/>
</svg>
