<svg width="20" height="21" viewBox="0 0 20 21" fill="none" xmlns="http://www.w3.org/2000/svg">
<path d="M5 4.99994C5 11.0799 9.92 15.9999 16 15.9999C16.53 15.9999 17.05 15.9599 17.56 15.8899C15.95 18.3599 13.17 19.9999 10 19.9999C5.03 19.9999 1 15.9699 1 10.9999C1 7.82994 2.64 5.04994 5.11 3.43994C5.04 3.94994 5 4.46994 5 4.99994Z" fill="#E6F3FF" stroke="#E6F3FF" stroke-width="2" stroke-linecap="round" stroke-linejoin="round"/>
<path d="M13.22 5.03L15.75 3.09L12.56 3L11.5 0L10.44 3L7.25 3.09L9.78 5.03L8.87 8.09L11.5 6.28L14.13 8.09L13.22 5.03Z" fill="#E6F3FF"/>
<path d="M17.61 11.25L19.25 10L17.19 9.95L16.5 8L15.81 9.95L13.75 10L15.39 11.25L14.8 13.23L16.5 12.06L18.2 13.23L17.61 11.25Z" fill="#E6F3FF"/>
</svg>
