<svg width="23" height="23" viewBox="0 0 23 23" fill="none" xmlns="http://www.w3.org/2000/svg">
<path d="M21.2178 21.2178L14.5511 14.5511M1.21777 8.99555C1.21777 10.0169 1.41895 11.0283 1.80982 11.972C2.20069 12.9156 2.7736 13.773 3.49583 14.4953C4.21807 15.2175 5.07548 15.7904 6.01912 16.1813C6.96277 16.5722 7.97416 16.7733 8.99555 16.7733C10.0169 16.7733 11.0283 16.5722 11.972 16.1813C12.9156 15.7904 13.773 15.2175 14.4953 14.4953C15.2175 13.773 15.7904 12.9156 16.1813 11.972C16.5722 11.0283 16.7733 10.0169 16.7733 8.99555C16.7733 7.97416 16.5722 6.96277 16.1813 6.01912C15.7904 5.07548 15.2175 4.21807 14.4953 3.49583C13.773 2.7736 12.9156 2.20069 11.972 1.80982C11.0283 1.41895 10.0169 1.21777 8.99555 1.21777C7.97416 1.21777 6.96277 1.41895 6.01912 1.80982C5.07548 2.20069 4.21807 2.7736 3.49583 3.49583C2.7736 4.21807 2.20069 5.07548 1.80982 6.01912C1.41895 6.96277 1.21777 7.97416 1.21777 8.99555Z" stroke="#E6F3FF" stroke-width="2.4359" stroke-linecap="round" stroke-linejoin="round"/>
</svg>
