<svg width="21" height="25" viewBox="0 0 21 25" fill="none" xmlns="http://www.w3.org/2000/svg">
<path fill-rule="evenodd" clip-rule="evenodd" d="M17.5 8.75V15.75V21.875C17.5 22.5712 17.2234 23.2389 16.7312 23.7312C16.2389 24.2234 15.5712 24.5 14.875 24.5H2.625C1.92881 24.5 1.26113 24.2234 0.768845 23.7312C0.276562 23.2389 0 22.5712 0 21.875V2.625C0 1.92881 0.276562 1.26113 0.768845 0.768845C1.26113 0.276562 1.92881 0 2.625 0H14.875C15.5712 0 16.2389 0.276562 16.7312 0.768845C17.2234 1.26113 17.5 1.92881 17.5 2.625V8.75ZM16.1 9.15V15.35V20.775C16.1 21.3916 15.8677 21.983 15.4542 22.419C15.0407 22.855 14.4798 23.1 13.895 23.1H3.605C3.0202 23.1 2.45935 22.855 2.04583 22.419C1.63231 21.983 1.4 21.3916 1.4 20.775V3.725C1.4 3.10837 1.63231 2.517 2.04583 2.08098C2.45935 1.64496 3.0202 1.4 3.605 1.4H13.895C14.4798 1.4 15.0407 1.64496 15.4542 2.08098C15.8677 2.517 16.1 3.10837 16.1 3.725V9.15Z" fill="#E6F3FF"/>
<path d="M21 15.75V8.75V2.625C21 1.92881 20.7234 1.26113 20.2312 0.768845C19.7389 0.276562 19.0712 0 18.375 0H16.8L17.85 1.4C18.4348 1.4 18.5407 1.64496 18.9542 2.08098C19.3677 2.517 19.6 3.10837 19.6 3.725V9.15V15.35V20.775C19.6 21.3916 19.3677 21.983 18.9542 22.419C18.5407 22.855 18.4348 23.1 17.85 23.1L16.8 24.5H18.375C19.0712 24.5 19.7389 24.2234 20.2312 23.7312C20.7234 23.2389 21 22.5712 21 21.875V15.75Z" fill="#E6F3FF"/>
<path d="M14.1969 12.9111H4.00312C3.72137 12.9111 3.5 12.6887 3.5 12.4056C3.5 12.1224 3.72137 11.9 4.00312 11.9H14.1969C14.4786 11.9 14.7 12.1224 14.7 12.4056C14.7 12.6887 14.4786 12.9111 14.1969 12.9111Z" fill="#E6F3FF"/>
<path d="M6.825 16.4889C6.75901 16.4897 6.69359 16.4766 6.63294 16.4505C6.57228 16.4244 6.51774 16.3858 6.47281 16.3372L2.95094 12.7983C2.74969 12.5961 2.74969 12.2827 2.95094 12.0804L6.47281 8.55167C6.67406 8.34944 6.986 8.34944 7.18725 8.55167C7.3885 8.75389 7.3885 9.06733 7.18725 9.26956L4.01756 12.4546L7.18725 15.6396C7.3885 15.8418 7.3885 16.1552 7.18725 16.3574C7.08663 16.4586 6.95581 16.5091 6.83506 16.5091L6.825 16.4889Z" fill="#E6F3FF"/>
</svg>
