<svg width="20" height="25" viewBox="0 0 20 25" fill="none" xmlns="http://www.w3.org/2000/svg">
<rect x="19.5479" y="3.5" width="17.675" height="1.29725" rx="0.648624" transform="rotate(90 19.5479 3.5)" fill="#626262"/>
<rect x="19.5479" y="3.5" width="5.99977" height="1.29725" rx="0.648624" transform="rotate(90 19.5479 3.5)" fill="#F0F0F0"/>
<path fill-rule="evenodd" clip-rule="evenodd" d="M17.5 8.75V15.75V21.875C17.5 22.5712 17.2234 23.2389 16.7312 23.7312C16.2389 24.2234 15.5712 24.5 14.875 24.5H2.625C1.92881 24.5 1.26113 24.2234 0.768845 23.7312C0.276562 23.2389 0 22.5712 0 21.875V2.625C0 1.92881 0.276562 1.26113 0.768845 0.768845C1.26113 0.276562 1.92881 0 2.625 0H14.875C15.5712 0 16.2389 0.276562 16.7312 0.768845C17.2234 1.26113 17.5 1.92881 17.5 2.625V8.75ZM16.1 9.15V15.35V20.775C16.1 21.3916 15.8677 21.983 15.4542 22.419C15.0407 22.855 14.4798 23.1 13.895 23.1H3.605C3.0202 23.1 2.45935 22.855 2.04583 22.419C1.63231 21.983 1.4 21.3916 1.4 20.775V3.725C1.4 3.10837 1.63231 2.517 2.04583 2.08098C2.45935 1.64496 3.0202 1.4 3.605 1.4H13.895C14.4798 1.4 15.0407 1.64496 15.4542 2.08098C15.8677 2.517 16.1 3.10837 16.1 3.725V9.15Z" fill="#E6F3FF"/>
<path d="M3.46494 12.9818C3.27769 12.9818 3.12084 12.9116 2.99439 12.771C2.86794 12.6305 2.8045 12.4569 2.80406 12.25C2.80362 12.0431 2.86706 11.8695 2.99439 11.7289C3.12172 11.5884 3.27857 11.5182 3.46494 11.5182H14.0391C14.2264 11.5182 14.3834 11.5884 14.5103 11.7289C14.6372 11.8695 14.7004 12.0431 14.7 12.25C14.6996 12.4569 14.6361 12.6308 14.5097 12.7718C14.3832 12.9128 14.2264 12.9828 14.0391 12.9818H3.46494ZM3.46494 9.32272C3.27769 9.32272 3.12084 9.25247 2.99439 9.11196C2.86794 8.97145 2.8045 8.79777 2.80406 8.59091C2.80362 8.38405 2.86706 8.21036 2.99439 8.06985C3.12172 7.92934 3.27857 7.85909 3.46494 7.85909H14.0391C14.2264 7.85909 14.3834 7.92934 14.5103 8.06985C14.6372 8.21036 14.7004 8.38405 14.7 8.59091C14.6996 8.79777 14.6361 8.9717 14.5097 9.11269C14.3832 9.25369 14.2264 9.3237 14.0391 9.32272H3.46494ZM3.46494 5.66364C3.27769 5.66364 3.12084 5.59338 2.99439 5.45287C2.86794 5.31236 2.8045 5.13868 2.80406 4.93182C2.80362 4.72496 2.86706 4.55127 2.99439 4.41076C3.12172 4.27025 3.27857 4.2 3.46494 4.2H14.0391C14.2264 4.2 14.3834 4.27025 14.5103 4.41076C14.6372 4.55127 14.7004 4.72496 14.7 4.93182C14.6996 5.13868 14.6361 5.31261 14.5097 5.4536C14.3832 5.5946 14.2264 5.66461 14.0391 5.66364H3.46494Z" fill="white"/>
<path d="M3.46089 16.6409C3.27363 16.6409 3.11678 16.5706 2.99034 16.4301C2.86389 16.2896 2.80044 16.1159 2.8 15.9091C2.79956 15.7022 2.863 15.5285 2.99034 15.388C3.11767 15.2475 3.27452 15.1773 3.46089 15.1773H14.0351C14.2223 15.1773 14.3794 15.2475 14.5063 15.388C14.6332 15.5285 14.6964 15.7022 14.6959 15.9091C14.6955 16.1159 14.6321 16.2899 14.5056 16.4309C14.3792 16.5719 14.2223 16.6419 14.0351 16.6409H3.46089Z" fill="white"/>
<path d="M3.46089 20.3C3.27363 20.3 3.11678 20.2297 2.99034 20.0892C2.86389 19.9487 2.80044 19.775 2.8 19.5682C2.79956 19.3613 2.863 19.1876 2.99034 19.0471C3.11767 18.9066 3.27452 18.8364 3.46089 18.8364H14.0351C14.2223 18.8364 14.3794 18.9066 14.5063 19.0471C14.6332 19.1876 14.6964 19.3613 14.6959 19.5682C14.6955 19.775 14.6321 19.949 14.5056 20.09C14.3792 20.231 14.2223 20.301 14.0351 20.3H3.46089Z" fill="white"/>
</svg>
