<svg width="8" height="11" viewBox="0 0 8 11" fill="none" xmlns="http://www.w3.org/2000/svg">
<path d="M7.96256 10.1072L4.58057 0.431687C4.53627 0.304885 4.45694 0.195612 4.35319 0.118472C4.24945 0.0413318 4.12623 0 4 0C3.87377 0 3.75055 0.0413318 3.64681 0.118472C3.54306 0.195612 3.46373 0.304885 3.41943 0.431687L0.0374395 10.1072C-0.0184965 10.2719 -0.011529 10.4537 0.0568263 10.613C0.125182 10.7723 0.249395 10.8962 0.402447 10.9577C0.555499 11.0192 0.725009 11.0134 0.874103 10.9416C1.0232 10.8697 1.13981 10.7376 1.19859 10.574L2.21769 7.65866C2.22171 7.64714 2.2289 7.6372 2.23832 7.63018C2.24774 7.62315 2.25893 7.61938 2.2704 7.61936H5.7296C5.74107 7.61938 5.75226 7.62315 5.76168 7.63018C5.7711 7.6372 5.77829 7.64714 5.78231 7.65866L6.80141 10.574C6.86019 10.7376 6.9768 10.8697 7.1259 10.9416C7.27499 11.0134 7.4445 11.0192 7.59755 10.9577C7.7506 10.8962 7.87482 10.7723 7.94317 10.613C8.01153 10.4537 8.0185 10.2719 7.96256 10.1072ZM2.72499 6.20674L3.9473 2.70996C3.95135 2.69849 3.95857 2.68861 3.96798 2.68164C3.97739 2.67467 3.98856 2.67093 4 2.67093C4.01144 2.67093 4.02261 2.67467 4.03202 2.68164C4.04143 2.68861 4.04865 2.69849 4.0527 2.70996L5.27501 6.20734C5.27819 6.21648 5.27927 6.22631 5.27814 6.23599C5.27702 6.24567 5.27372 6.25492 5.26855 6.26294C5.26337 6.27096 5.25646 6.27752 5.24841 6.28205C5.24035 6.28659 5.2314 6.28896 5.22231 6.28898H2.77769C2.7686 6.28896 2.75965 6.28659 2.75159 6.28205C2.74354 6.27752 2.73663 6.27096 2.73145 6.26294C2.72628 6.25492 2.72298 6.24567 2.72186 6.23599C2.72073 6.22631 2.72181 6.21588 2.72499 6.20674Z" fill="#E6F3FF"/>
</svg>
