<svg width="16" height="16" viewBox="0 0 16 16" fill="none" xmlns="http://www.w3.org/2000/svg">
<path d="M8 4.33398V12.334" stroke="#0084FF" stroke-width="0.583333" stroke-linecap="round"/>
<path d="M13.667 4.33398V12.334" stroke="#0084FF" stroke-width="0.583333" stroke-linecap="round"/>
<path d="M2.33301 4.33398V12.334" stroke="#0084FF" stroke-width="0.583333" stroke-linecap="round"/>
<path d="M13.6667 12.3333C13.6667 12.3333 13 11 10.6667 11C8.33333 11 8 12.3333 8 12.3333" stroke="#0084FF" stroke-width="0.583333" stroke-linecap="round"/>
<path d="M2.33301 12.3333C2.33301 12.3333 2.99967 11 5.33301 11C7.66634 11 7.99967 12.3333 7.99967 12.3333" stroke="#0084FF" stroke-width="0.583333" stroke-linecap="round"/>
<path d="M13.6667 4.33333C13.6667 4.33333 13 3 10.6667 3C8.33333 3 8 4.33333 8 4.33333" stroke="#0084FF" stroke-width="0.583333" stroke-linecap="round"/>
<path d="M2.33301 4.33333C2.33301 4.33333 2.99967 3 5.33301 3C7.66634 3 7.99967 4.33333 7.99967 4.33333" stroke="#0084FF" stroke-width="0.583333" stroke-linecap="round"/>
</svg>
