<svg width="16" height="16" viewBox="0 0 16 16" fill="none" xmlns="http://www.w3.org/2000/svg">
<path d="M7.99965 1.9997C8.26486 1.9997 8.51922 1.89434 8.70675 1.7068C8.89429 1.51927 8.99965 1.26491 8.99965 0.999698C8.99965 0.734481 8.89429 0.48043 8.70675 0.292893C8.51922 0.105357 8.26486 0 7.99965 0C7.73443 0 7.48008 0.105357 7.29254 0.292893C7.105 0.48043 6.99965 0.734784 6.99965 1C6.99965 1.26522 7.105 1.51927 7.29254 1.7068C7.48008 1.89434 7.73443 1.9997 7.99965 1.9997ZM14.9996 6.9997C14.7344 6.9997 14.4801 7.10506 14.2925 7.29259C14.105 7.48013 13.9996 7.73448 13.9996 7.9997C13.9996 8.26492 14.105 8.51927 14.2925 8.70681C14.4801 8.89434 14.7344 8.9997 14.9996 8.9997C15.2649 8.9997 15.5192 8.89434 15.7068 8.70681C15.8943 8.51927 15.9996 8.26492 15.9996 7.9997C15.9996 7.73448 15.8943 7.48013 15.7068 7.29259C15.5192 7.10506 15.2649 6.9997 14.9996 6.9997ZM1.99965 7.9997C1.99965 7.73448 1.89429 7.48013 1.70675 7.29259C1.51922 7.10506 1.26486 6.9997 0.999647 6.9997C0.73443 6.9997 0.48043 7.10506 0.292893 7.29259C0.105357 7.48013 0 7.73448 0 7.9997C0 8.26492 0.105357 8.51927 0.292893 8.70681C0.48043 8.89434 0.734784 8.9997 1 8.9997C1.26522 8.9997 1.51922 8.89434 1.70675 8.70681C1.89429 8.51927 1.99965 8.26492 1.99965 7.9997ZM3.65965 2.3897C3.46471 2.20537 3.20454 2.10603 2.93636 2.11354C2.66819 2.12104 2.41397 2.23476 2.22965 2.4297C2.04532 2.62463 1.94598 2.88481 1.95348 3.15298C1.96099 3.42116 2.07471 3.67537 2.26965 3.8597C2.36628 3.95301 2.48073 4.02589 2.60615 4.074C2.73157 4.12211 2.8654 4.14445 2.99965 4.1397C3.13435 4.13918 3.26756 4.11146 3.39129 4.05819C3.51501 4.00492 3.6267 3.9272 3.71965 3.8297C3.9059 3.64234 4.01044 3.38888 4.01044 3.1247C4.01044 2.86051 3.9059 2.60706 3.71965 2.4197L3.65965 2.3897ZM12.9996 4.1397C13.2571 4.13867 13.5043 4.03838 13.6896 3.8597C13.8653 3.67615 13.9645 3.43262 13.9671 3.17857C13.9698 2.92452 13.8756 2.67899 13.7037 2.49187C13.5319 2.30474 13.2952 2.19004 13.0419 2.17107C12.7885 2.15209 12.5375 2.23026 12.3397 2.3897L12.3396 2.4197C12.1534 2.60706 12.0489 2.86051 12.0489 3.1247C12.0489 3.38888 12.1534 3.64234 12.3396 3.8297C12.5128 4.01242 12.7485 4.12312 12.9996 4.1397ZM7.99965 13.9997C7.73443 13.9997 7.48008 14.1051 7.29254 14.2926C7.105 14.4801 6.99965 14.7345 6.99965 14.9997C6.99965 15.2649 7.105 15.5193 7.29254 15.7068C7.48008 15.8943 7.73443 15.9997 7.99965 15.9997C8.26486 15.9997 8.51922 15.8943 8.70675 15.7068C8.89429 15.5193 8.99965 15.2649 8.99965 14.9997C8.99965 14.7345 8.89429 14.4801 8.70675 14.2926C8.51922 14.1051 8.26486 13.9997 7.99965 13.9997ZM13.7296 12.1397C13.5387 11.9554 13.2823 11.8545 13.017 11.8591C12.7516 11.8638 12.499 11.9737 12.3146 12.1647C12.1303 12.3557 12.0294 12.612 12.0341 12.8774C12.0388 13.1427 12.1487 13.3954 12.3396 13.5797C12.525 13.7584 12.7722 13.8587 13.0296 13.8597C13.1636 13.8605 13.2964 13.8343 13.4201 13.7828C13.5438 13.7313 13.6559 13.6554 13.7496 13.5597C13.8434 13.4667 13.9178 13.3561 13.9685 13.2343C14.0193 13.1124 14.0454 12.9817 14.0454 12.8497C14.0454 12.7177 14.0193 12.587 13.9685 12.4651C13.9178 12.3433 13.8434 12.2327 13.7496 12.1397H13.7296ZM2.26965 12.1697C2.17592 12.2627 2.10152 12.3733 2.05076 12.4951C1.99999 12.617 1.97385 12.7477 1.97385 12.8797C1.97385 13.0117 1.99999 13.1424 2.05076 13.2643C2.10152 13.3861 2.17592 13.4967 2.26965 13.5897C2.36344 13.6854 2.47551 13.7613 2.59919 13.8128C2.72288 13.8643 2.85566 13.8905 2.98965 13.8897C3.23616 13.8918 3.47476 13.8028 3.65965 13.6397V13.6097C3.8506 13.4254 3.96052 13.1727 3.9652 12.9074C3.96989 12.642 3.86897 12.3857 3.68465 12.1947C3.50032 12.0037 3.24769 11.8938 2.98232 11.8891C2.71696 11.8845 2.4606 11.9854 2.26965 12.1697ZM7.99965 3.9997C7.20852 3.9997 6.43516 4.23429 5.77737 4.67382C5.11957 5.11335 4.60688 5.73806 4.30413 6.46896C4.00138 7.19987 3.92217 8.00414 4.07651 8.78006C4.23085 9.55598 4.61181 10.2687 5.17122 10.8281C5.73063 11.3875 6.44336 11.7685 7.21929 11.9228C7.99521 12.0772 8.79948 11.998 9.53038 11.6952C10.2613 11.3925 10.886 10.8798 11.3255 10.222C11.7651 9.56418 11.9996 8.79082 11.9996 7.9997C11.9996 6.93883 11.5782 5.92142 10.8281 5.17127C10.0779 4.42113 9.06051 3.9997 7.99965 3.9997Z" fill="#E6F3FF"/>
</svg>
