<svg width="28" height="19" viewBox="0 0 28 19" fill="none" xmlns="http://www.w3.org/2000/svg">
<path d="M14 5.05311C14.5461 5.04144 14.9824 4.60162 14.9824 3.98323V1.0582C14.9824 0.440327 14.5461 0 14 0C13.4539 0 13.0176 0.440327 13.0176 1.0582V3.98323C13.0176 4.60162 13.4539 5.06477 14 5.05311ZM20.2601 7.58651C20.6483 7.9548 21.2793 7.9548 21.728 7.52665L23.8389 5.45792C24.2876 5.00643 24.2757 4.39972 23.8994 4.01925C23.5236 3.65096 22.8927 3.63878 22.4439 4.0786L20.3325 6.14783C19.8838 6.58765 19.8719 7.21771 20.2601 7.58651ZM6.27197 7.52665C6.72126 7.9548 7.37605 7.96697 7.73993 7.58651C8.11624 7.20604 8.11624 6.58715 7.67937 6.14783L5.56853 4.07911C5.10785 3.63878 4.48878 3.65096 4.11299 4.01925C3.72478 4.39972 3.71235 5.00643 4.16113 5.45792L6.27197 7.52665ZM1.08027 19H26.9202C27.3447 19 27.6848 18.6667 27.6848 18.2391C27.6848 17.8109 27.3452 17.4898 26.9202 17.4898H19.2901C20.0908 16.4316 20.5758 15.1238 20.5758 13.709C20.5758 10.1894 17.5917 7.25271 14.0005 7.25271C10.4093 7.25271 7.42522 10.1899 7.42522 13.709C7.42522 15.1238 7.91075 16.4316 8.71098 17.4898H1.08027C0.655821 17.4898 0.315747 17.8109 0.315747 18.2391C0.315747 18.6667 0.655821 19 1.08027 19ZM1.08027 14.3867H4.06485C4.69583 14.3867 5.16893 13.9469 5.15702 13.4117C5.1446 12.8887 4.69583 12.4489 4.06485 12.4489H1.07975C0.461197 12.4489 0 12.8887 0 13.4117C0 13.9469 0.461197 14.3867 1.08027 14.3867ZM23.9357 14.3867H26.9202C27.5512 14.3867 28 13.9469 28 13.4117C28 12.8887 27.5512 12.4489 26.9202 12.4489H23.9357C23.3052 12.4489 22.8321 12.8887 22.844 13.4117C22.8559 13.9469 23.3042 14.3867 23.9357 14.3867Z" fill="#E6F3FF"/>
</svg>
